%TF.GenerationSoftware,KiCad,Pcbnew,6.0.11-2627ca5db0~126~ubuntu20.04.1*%
%TF.CreationDate,2024-03-17T04:55:27-05:00*%
%TF.ProjectId,WaterFlowCounter,57617465-7246-46c6-9f77-436f756e7465,rev?*%
%TF.SameCoordinates,Original*%
%TF.FileFunction,Drillmap*%
%TF.FilePolarity,Positive*%
%FSLAX45Y45*%
G04 Gerber Fmt 4.5, Leading zero omitted, Abs format (unit mm)*
G04 Created by KiCad (PCBNEW 6.0.11-2627ca5db0~126~ubuntu20.04.1) date 2024-03-17 04:55:27*
%MOMM*%
%LPD*%
G01*
G04 APERTURE LIST*
%ADD10C,0.200000*%
G04 APERTURE END LIST*
D10*
X17255000Y-10300000D02*
G75*
G03*
X17255000Y-10300000I-155000J0D01*
G01*
X12500000Y-10000000D02*
X17400000Y-10000000D01*
X17400000Y-10000000D02*
X17400000Y-12500000D01*
X17400000Y-12500000D02*
X12500000Y-12500000D01*
X12500000Y-12500000D02*
X12500000Y-10000000D01*
X12955000Y-12200000D02*
G75*
G03*
X12955000Y-12200000I-155000J0D01*
G01*
X17255000Y-12200000D02*
G75*
G03*
X17255000Y-12200000I-155000J0D01*
G01*
X12955000Y-10300000D02*
G75*
G03*
X12955000Y-10300000I-155000J0D01*
G01*
X12747619Y-12820476D02*
X12747619Y-12620476D01*
X12795238Y-12620476D01*
X12823809Y-12630000D01*
X12842857Y-12649048D01*
X12852381Y-12668095D01*
X12861905Y-12706190D01*
X12861905Y-12734762D01*
X12852381Y-12772857D01*
X12842857Y-12791905D01*
X12823809Y-12810952D01*
X12795238Y-12820476D01*
X12747619Y-12820476D01*
X12947619Y-12820476D02*
X12947619Y-12687143D01*
X12947619Y-12725238D02*
X12957143Y-12706190D01*
X12966667Y-12696667D01*
X12985714Y-12687143D01*
X13004762Y-12687143D01*
X13071428Y-12820476D02*
X13071428Y-12687143D01*
X13071428Y-12620476D02*
X13061905Y-12630000D01*
X13071428Y-12639524D01*
X13080952Y-12630000D01*
X13071428Y-12620476D01*
X13071428Y-12639524D01*
X13195238Y-12820476D02*
X13176190Y-12810952D01*
X13166667Y-12791905D01*
X13166667Y-12620476D01*
X13300000Y-12820476D02*
X13280952Y-12810952D01*
X13271428Y-12791905D01*
X13271428Y-12620476D01*
X13528571Y-12820476D02*
X13528571Y-12620476D01*
X13595238Y-12763333D01*
X13661905Y-12620476D01*
X13661905Y-12820476D01*
X13842857Y-12820476D02*
X13842857Y-12715714D01*
X13833333Y-12696667D01*
X13814286Y-12687143D01*
X13776190Y-12687143D01*
X13757143Y-12696667D01*
X13842857Y-12810952D02*
X13823809Y-12820476D01*
X13776190Y-12820476D01*
X13757143Y-12810952D01*
X13747619Y-12791905D01*
X13747619Y-12772857D01*
X13757143Y-12753809D01*
X13776190Y-12744286D01*
X13823809Y-12744286D01*
X13842857Y-12734762D01*
X13938095Y-12687143D02*
X13938095Y-12887143D01*
X13938095Y-12696667D02*
X13957143Y-12687143D01*
X13995238Y-12687143D01*
X14014286Y-12696667D01*
X14023809Y-12706190D01*
X14033333Y-12725238D01*
X14033333Y-12782381D01*
X14023809Y-12801428D01*
X14014286Y-12810952D01*
X13995238Y-12820476D01*
X13957143Y-12820476D01*
X13938095Y-12810952D01*
X14119048Y-12801428D02*
X14128571Y-12810952D01*
X14119048Y-12820476D01*
X14109524Y-12810952D01*
X14119048Y-12801428D01*
X14119048Y-12820476D01*
X14119048Y-12696667D02*
X14128571Y-12706190D01*
X14119048Y-12715714D01*
X14109524Y-12706190D01*
X14119048Y-12696667D01*
X14119048Y-12715714D01*
M02*
