%TF.GenerationSoftware,KiCad,Pcbnew,6.0.11-2627ca5db0~126~ubuntu20.04.1*%
%TF.CreationDate,2024-03-17T04:55:18-05:00*%
%TF.ProjectId,WaterFlowCounter,57617465-7246-46c6-9f77-436f756e7465,rev?*%
%TF.SameCoordinates,Original*%
%TF.FileFunction,Legend,Top*%
%TF.FilePolarity,Positive*%
%FSLAX46Y46*%
G04 Gerber Fmt 4.6, Leading zero omitted, Abs format (unit mm)*
G04 Created by KiCad (PCBNEW 6.0.11-2627ca5db0~126~ubuntu20.04.1) date 2024-03-17 04:55:18*
%MOMM*%
%LPD*%
G01*
G04 APERTURE LIST*
%ADD10C,0.150000*%
%TA.AperFunction,Profile*%
%ADD11C,0.200000*%
%TD*%
%ADD12C,0.120000*%
%ADD13C,0.152400*%
%ADD14C,0.254000*%
%ADD15C,0.200000*%
G04 APERTURE END LIST*
D10*
X163563714Y-114219228D02*
X164325619Y-114219228D01*
X163944666Y-114600180D02*
X163944666Y-113838276D01*
X164706571Y-113600180D02*
X165325619Y-113600180D01*
X164992285Y-113981133D01*
X165135142Y-113981133D01*
X165230380Y-114028752D01*
X165278000Y-114076371D01*
X165325619Y-114171609D01*
X165325619Y-114409704D01*
X165278000Y-114504942D01*
X165230380Y-114552561D01*
X165135142Y-114600180D01*
X164849428Y-114600180D01*
X164754190Y-114552561D01*
X164706571Y-114504942D01*
X165658952Y-113933514D02*
X165897047Y-114600180D01*
X166135142Y-113933514D01*
X166420857Y-113600180D02*
X167039904Y-113600180D01*
X166706571Y-113981133D01*
X166849428Y-113981133D01*
X166944666Y-114028752D01*
X166992285Y-114076371D01*
X167039904Y-114171609D01*
X167039904Y-114409704D01*
X166992285Y-114504942D01*
X166944666Y-114552561D01*
X166849428Y-114600180D01*
X166563714Y-114600180D01*
X166468476Y-114552561D01*
X166420857Y-114504942D01*
X165157457Y-117318028D02*
X165919361Y-117318028D01*
X165538409Y-117698980D02*
X165538409Y-116937076D01*
X166871742Y-116698980D02*
X166395552Y-116698980D01*
X166347933Y-117175171D01*
X166395552Y-117127552D01*
X166490790Y-117079933D01*
X166728885Y-117079933D01*
X166824123Y-117127552D01*
X166871742Y-117175171D01*
X166919361Y-117270409D01*
X166919361Y-117508504D01*
X166871742Y-117603742D01*
X166824123Y-117651361D01*
X166728885Y-117698980D01*
X166490790Y-117698980D01*
X166395552Y-117651361D01*
X166347933Y-117603742D01*
X164962209Y-111479161D02*
X165105066Y-111526780D01*
X165343161Y-111526780D01*
X165438400Y-111479161D01*
X165486019Y-111431542D01*
X165533638Y-111336304D01*
X165533638Y-111241066D01*
X165486019Y-111145828D01*
X165438400Y-111098209D01*
X165343161Y-111050590D01*
X165152685Y-111002971D01*
X165057447Y-110955352D01*
X165009828Y-110907733D01*
X164962209Y-110812495D01*
X164962209Y-110717257D01*
X165009828Y-110622019D01*
X165057447Y-110574400D01*
X165152685Y-110526780D01*
X165390780Y-110526780D01*
X165533638Y-110574400D01*
X165962209Y-111526780D02*
X165962209Y-110860114D01*
X165962209Y-110526780D02*
X165914590Y-110574400D01*
X165962209Y-110622019D01*
X166009828Y-110574400D01*
X165962209Y-110526780D01*
X165962209Y-110622019D01*
X166866971Y-110860114D02*
X166866971Y-111669638D01*
X166819352Y-111764876D01*
X166771733Y-111812495D01*
X166676495Y-111860114D01*
X166533638Y-111860114D01*
X166438400Y-111812495D01*
X166866971Y-111479161D02*
X166771733Y-111526780D01*
X166581257Y-111526780D01*
X166486019Y-111479161D01*
X166438400Y-111431542D01*
X166390780Y-111336304D01*
X166390780Y-111050590D01*
X166438400Y-110955352D01*
X166486019Y-110907733D01*
X166581257Y-110860114D01*
X166771733Y-110860114D01*
X166866971Y-110907733D01*
X165193942Y-107450200D02*
X165098704Y-107402580D01*
X164955847Y-107402580D01*
X164812990Y-107450200D01*
X164717752Y-107545438D01*
X164670133Y-107640676D01*
X164622514Y-107831152D01*
X164622514Y-107974009D01*
X164670133Y-108164485D01*
X164717752Y-108259723D01*
X164812990Y-108354961D01*
X164955847Y-108402580D01*
X165051085Y-108402580D01*
X165193942Y-108354961D01*
X165241561Y-108307342D01*
X165241561Y-107974009D01*
X165051085Y-107974009D01*
X165670133Y-107735914D02*
X165670133Y-108402580D01*
X165670133Y-107831152D02*
X165717752Y-107783533D01*
X165812990Y-107735914D01*
X165955847Y-107735914D01*
X166051085Y-107783533D01*
X166098704Y-107878771D01*
X166098704Y-108402580D01*
X167003466Y-108402580D02*
X167003466Y-107402580D01*
X167003466Y-108354961D02*
X166908228Y-108402580D01*
X166717752Y-108402580D01*
X166622514Y-108354961D01*
X166574895Y-108307342D01*
X166527276Y-108212104D01*
X166527276Y-107926390D01*
X166574895Y-107831152D01*
X166622514Y-107783533D01*
X166717752Y-107735914D01*
X166908228Y-107735914D01*
X167003466Y-107783533D01*
D11*
X172550000Y-103000000D02*
G75*
G03*
X172550000Y-103000000I-1550000J0D01*
G01*
X125000000Y-100000000D02*
X174000000Y-100000000D01*
X174000000Y-100000000D02*
X174000000Y-125000000D01*
X174000000Y-125000000D02*
X125000000Y-125000000D01*
X125000000Y-125000000D02*
X125000000Y-100000000D01*
X129550000Y-122000000D02*
G75*
G03*
X129550000Y-122000000I-1550000J0D01*
G01*
X172550000Y-122000000D02*
G75*
G03*
X172550000Y-122000000I-1550000J0D01*
G01*
X129550000Y-103000000D02*
G75*
G03*
X129550000Y-103000000I-1550000J0D01*
G01*
D10*
X138475076Y-101258580D02*
X138713171Y-102258580D01*
X138903647Y-101544295D01*
X139094123Y-102258580D01*
X139332219Y-101258580D01*
X140141742Y-102258580D02*
X140141742Y-101734771D01*
X140094123Y-101639533D01*
X139998885Y-101591914D01*
X139808409Y-101591914D01*
X139713171Y-101639533D01*
X140141742Y-102210961D02*
X140046504Y-102258580D01*
X139808409Y-102258580D01*
X139713171Y-102210961D01*
X139665552Y-102115723D01*
X139665552Y-102020485D01*
X139713171Y-101925247D01*
X139808409Y-101877628D01*
X140046504Y-101877628D01*
X140141742Y-101830009D01*
X140475076Y-101591914D02*
X140856028Y-101591914D01*
X140617933Y-101258580D02*
X140617933Y-102115723D01*
X140665552Y-102210961D01*
X140760790Y-102258580D01*
X140856028Y-102258580D01*
X141570314Y-102210961D02*
X141475076Y-102258580D01*
X141284600Y-102258580D01*
X141189361Y-102210961D01*
X141141742Y-102115723D01*
X141141742Y-101734771D01*
X141189361Y-101639533D01*
X141284600Y-101591914D01*
X141475076Y-101591914D01*
X141570314Y-101639533D01*
X141617933Y-101734771D01*
X141617933Y-101830009D01*
X141141742Y-101925247D01*
X142046504Y-102258580D02*
X142046504Y-101591914D01*
X142046504Y-101782390D02*
X142094123Y-101687152D01*
X142141742Y-101639533D01*
X142236980Y-101591914D01*
X142332219Y-101591914D01*
X143760790Y-101734771D02*
X143427457Y-101734771D01*
X143427457Y-102258580D02*
X143427457Y-101258580D01*
X143903647Y-101258580D01*
X144427457Y-102258580D02*
X144332219Y-102210961D01*
X144284600Y-102115723D01*
X144284600Y-101258580D01*
X144951266Y-102258580D02*
X144856028Y-102210961D01*
X144808409Y-102163342D01*
X144760790Y-102068104D01*
X144760790Y-101782390D01*
X144808409Y-101687152D01*
X144856028Y-101639533D01*
X144951266Y-101591914D01*
X145094123Y-101591914D01*
X145189361Y-101639533D01*
X145236980Y-101687152D01*
X145284600Y-101782390D01*
X145284600Y-102068104D01*
X145236980Y-102163342D01*
X145189361Y-102210961D01*
X145094123Y-102258580D01*
X144951266Y-102258580D01*
X145617933Y-101591914D02*
X145808409Y-102258580D01*
X145998885Y-101782390D01*
X146189361Y-102258580D01*
X146379838Y-101591914D01*
X147808409Y-102639533D02*
X147760790Y-102591914D01*
X147665552Y-102449057D01*
X147617933Y-102353819D01*
X147570314Y-102210961D01*
X147522695Y-101972866D01*
X147522695Y-101782390D01*
X147570314Y-101544295D01*
X147617933Y-101401438D01*
X147665552Y-101306200D01*
X147760790Y-101163342D01*
X147808409Y-101115723D01*
X148189361Y-102258580D02*
X148189361Y-101258580D01*
X148570314Y-101258580D01*
X148665552Y-101306200D01*
X148713171Y-101353819D01*
X148760790Y-101449057D01*
X148760790Y-101591914D01*
X148713171Y-101687152D01*
X148665552Y-101734771D01*
X148570314Y-101782390D01*
X148189361Y-101782390D01*
X149617933Y-101591914D02*
X149617933Y-102258580D01*
X149189361Y-101591914D02*
X149189361Y-102115723D01*
X149236980Y-102210961D01*
X149332219Y-102258580D01*
X149475076Y-102258580D01*
X149570314Y-102210961D01*
X149617933Y-102163342D01*
X150236980Y-102258580D02*
X150141742Y-102210961D01*
X150094123Y-102115723D01*
X150094123Y-101258580D01*
X150570314Y-102210961D02*
X150665552Y-102258580D01*
X150856028Y-102258580D01*
X150951266Y-102210961D01*
X150998885Y-102115723D01*
X150998885Y-102068104D01*
X150951266Y-101972866D01*
X150856028Y-101925247D01*
X150713171Y-101925247D01*
X150617933Y-101877628D01*
X150570314Y-101782390D01*
X150570314Y-101734771D01*
X150617933Y-101639533D01*
X150713171Y-101591914D01*
X150856028Y-101591914D01*
X150951266Y-101639533D01*
X151808409Y-102210961D02*
X151713171Y-102258580D01*
X151522695Y-102258580D01*
X151427457Y-102210961D01*
X151379838Y-102115723D01*
X151379838Y-101734771D01*
X151427457Y-101639533D01*
X151522695Y-101591914D01*
X151713171Y-101591914D01*
X151808409Y-101639533D01*
X151856028Y-101734771D01*
X151856028Y-101830009D01*
X151379838Y-101925247D01*
X152189361Y-102639533D02*
X152236980Y-102591914D01*
X152332219Y-102449057D01*
X152379838Y-102353819D01*
X152427457Y-102210961D01*
X152475076Y-101972866D01*
X152475076Y-101782390D01*
X152427457Y-101544295D01*
X152379838Y-101401438D01*
X152332219Y-101306200D01*
X152236980Y-101163342D01*
X152189361Y-101115723D01*
X154284600Y-102163342D02*
X154236980Y-102210961D01*
X154094123Y-102258580D01*
X153998885Y-102258580D01*
X153856028Y-102210961D01*
X153760790Y-102115723D01*
X153713171Y-102020485D01*
X153665552Y-101830009D01*
X153665552Y-101687152D01*
X153713171Y-101496676D01*
X153760790Y-101401438D01*
X153856028Y-101306200D01*
X153998885Y-101258580D01*
X154094123Y-101258580D01*
X154236980Y-101306200D01*
X154284600Y-101353819D01*
X154856028Y-102258580D02*
X154760790Y-102210961D01*
X154713171Y-102163342D01*
X154665552Y-102068104D01*
X154665552Y-101782390D01*
X154713171Y-101687152D01*
X154760790Y-101639533D01*
X154856028Y-101591914D01*
X154998885Y-101591914D01*
X155094123Y-101639533D01*
X155141742Y-101687152D01*
X155189361Y-101782390D01*
X155189361Y-102068104D01*
X155141742Y-102163342D01*
X155094123Y-102210961D01*
X154998885Y-102258580D01*
X154856028Y-102258580D01*
X156046504Y-101591914D02*
X156046504Y-102258580D01*
X155617933Y-101591914D02*
X155617933Y-102115723D01*
X155665552Y-102210961D01*
X155760790Y-102258580D01*
X155903647Y-102258580D01*
X155998885Y-102210961D01*
X156046504Y-102163342D01*
X156522695Y-101591914D02*
X156522695Y-102258580D01*
X156522695Y-101687152D02*
X156570314Y-101639533D01*
X156665552Y-101591914D01*
X156808409Y-101591914D01*
X156903647Y-101639533D01*
X156951266Y-101734771D01*
X156951266Y-102258580D01*
X157284600Y-101591914D02*
X157665552Y-101591914D01*
X157427457Y-101258580D02*
X157427457Y-102115723D01*
X157475076Y-102210961D01*
X157570314Y-102258580D01*
X157665552Y-102258580D01*
X158379838Y-102210961D02*
X158284600Y-102258580D01*
X158094123Y-102258580D01*
X157998885Y-102210961D01*
X157951266Y-102115723D01*
X157951266Y-101734771D01*
X157998885Y-101639533D01*
X158094123Y-101591914D01*
X158284600Y-101591914D01*
X158379838Y-101639533D01*
X158427457Y-101734771D01*
X158427457Y-101830009D01*
X157951266Y-101925247D01*
X158856028Y-102258580D02*
X158856028Y-101591914D01*
X158856028Y-101782390D02*
X158903647Y-101687152D01*
X158951266Y-101639533D01*
X159046504Y-101591914D01*
X159141742Y-101591914D01*
X137189361Y-102868580D02*
X137522695Y-103868580D01*
X137856028Y-102868580D01*
X138903647Y-102963819D02*
X138951266Y-102916200D01*
X139046504Y-102868580D01*
X139284600Y-102868580D01*
X139379838Y-102916200D01*
X139427457Y-102963819D01*
X139475076Y-103059057D01*
X139475076Y-103154295D01*
X139427457Y-103297152D01*
X138856028Y-103868580D01*
X139475076Y-103868580D01*
X139903647Y-103773342D02*
X139951266Y-103820961D01*
X139903647Y-103868580D01*
X139856028Y-103820961D01*
X139903647Y-103773342D01*
X139903647Y-103868580D01*
X140570314Y-102868580D02*
X140665552Y-102868580D01*
X140760790Y-102916200D01*
X140808409Y-102963819D01*
X140856028Y-103059057D01*
X140903647Y-103249533D01*
X140903647Y-103487628D01*
X140856028Y-103678104D01*
X140808409Y-103773342D01*
X140760790Y-103820961D01*
X140665552Y-103868580D01*
X140570314Y-103868580D01*
X140475076Y-103820961D01*
X140427457Y-103773342D01*
X140379838Y-103678104D01*
X140332219Y-103487628D01*
X140332219Y-103249533D01*
X140379838Y-103059057D01*
X140427457Y-102963819D01*
X140475076Y-102916200D01*
X140570314Y-102868580D01*
X142284600Y-102868580D02*
X142379838Y-102868580D01*
X142475076Y-102916200D01*
X142522695Y-102963819D01*
X142570314Y-103059057D01*
X142617933Y-103249533D01*
X142617933Y-103487628D01*
X142570314Y-103678104D01*
X142522695Y-103773342D01*
X142475076Y-103820961D01*
X142379838Y-103868580D01*
X142284600Y-103868580D01*
X142189361Y-103820961D01*
X142141742Y-103773342D01*
X142094123Y-103678104D01*
X142046504Y-103487628D01*
X142046504Y-103249533D01*
X142094123Y-103059057D01*
X142141742Y-102963819D01*
X142189361Y-102916200D01*
X142284600Y-102868580D01*
X142951266Y-102868580D02*
X143570314Y-102868580D01*
X143236980Y-103249533D01*
X143379838Y-103249533D01*
X143475076Y-103297152D01*
X143522695Y-103344771D01*
X143570314Y-103440009D01*
X143570314Y-103678104D01*
X143522695Y-103773342D01*
X143475076Y-103820961D01*
X143379838Y-103868580D01*
X143094123Y-103868580D01*
X142998885Y-103820961D01*
X142951266Y-103773342D01*
X143998885Y-103487628D02*
X144760790Y-103487628D01*
X145760790Y-103868580D02*
X145189361Y-103868580D01*
X145475076Y-103868580D02*
X145475076Y-102868580D01*
X145379838Y-103011438D01*
X145284600Y-103106676D01*
X145189361Y-103154295D01*
X146094123Y-102868580D02*
X146760790Y-102868580D01*
X146332219Y-103868580D01*
X147141742Y-103487628D02*
X147903647Y-103487628D01*
X148332219Y-102963819D02*
X148379838Y-102916200D01*
X148475076Y-102868580D01*
X148713171Y-102868580D01*
X148808409Y-102916200D01*
X148856028Y-102963819D01*
X148903647Y-103059057D01*
X148903647Y-103154295D01*
X148856028Y-103297152D01*
X148284600Y-103868580D01*
X148903647Y-103868580D01*
X149760790Y-103201914D02*
X149760790Y-103868580D01*
X149522695Y-102820961D02*
X149284600Y-103535247D01*
X149903647Y-103535247D01*
X151046504Y-103868580D02*
X151046504Y-102868580D01*
X151284600Y-102868580D01*
X151427457Y-102916200D01*
X151522695Y-103011438D01*
X151570314Y-103106676D01*
X151617933Y-103297152D01*
X151617933Y-103440009D01*
X151570314Y-103630485D01*
X151522695Y-103725723D01*
X151427457Y-103820961D01*
X151284600Y-103868580D01*
X151046504Y-103868580D01*
X152475076Y-103868580D02*
X152475076Y-103344771D01*
X152427457Y-103249533D01*
X152332219Y-103201914D01*
X152141742Y-103201914D01*
X152046504Y-103249533D01*
X152475076Y-103820961D02*
X152379838Y-103868580D01*
X152141742Y-103868580D01*
X152046504Y-103820961D01*
X151998885Y-103725723D01*
X151998885Y-103630485D01*
X152046504Y-103535247D01*
X152141742Y-103487628D01*
X152379838Y-103487628D01*
X152475076Y-103440009D01*
X152856028Y-103201914D02*
X153094123Y-103868580D01*
X153332219Y-103201914D01*
X153713171Y-103868580D02*
X153713171Y-103201914D01*
X153713171Y-102868580D02*
X153665552Y-102916200D01*
X153713171Y-102963819D01*
X153760790Y-102916200D01*
X153713171Y-102868580D01*
X153713171Y-102963819D01*
X154617933Y-103868580D02*
X154617933Y-102868580D01*
X154617933Y-103820961D02*
X154522695Y-103868580D01*
X154332219Y-103868580D01*
X154236980Y-103820961D01*
X154189361Y-103773342D01*
X154141742Y-103678104D01*
X154141742Y-103392390D01*
X154189361Y-103297152D01*
X154236980Y-103249533D01*
X154332219Y-103201914D01*
X154522695Y-103201914D01*
X154617933Y-103249533D01*
X155856028Y-103868580D02*
X155856028Y-102868580D01*
X156236980Y-102868580D01*
X156332219Y-102916200D01*
X156379838Y-102963819D01*
X156427457Y-103059057D01*
X156427457Y-103201914D01*
X156379838Y-103297152D01*
X156332219Y-103344771D01*
X156236980Y-103392390D01*
X155856028Y-103392390D01*
X156998885Y-103868580D02*
X156903647Y-103820961D01*
X156856028Y-103773342D01*
X156808409Y-103678104D01*
X156808409Y-103392390D01*
X156856028Y-103297152D01*
X156903647Y-103249533D01*
X156998885Y-103201914D01*
X157141742Y-103201914D01*
X157236980Y-103249533D01*
X157284600Y-103297152D01*
X157332219Y-103392390D01*
X157332219Y-103678104D01*
X157284600Y-103773342D01*
X157236980Y-103820961D01*
X157141742Y-103868580D01*
X156998885Y-103868580D01*
X157665552Y-103201914D02*
X157856028Y-103868580D01*
X158046504Y-103392390D01*
X158236980Y-103868580D01*
X158427457Y-103201914D01*
X159189361Y-103820961D02*
X159094123Y-103868580D01*
X158903647Y-103868580D01*
X158808409Y-103820961D01*
X158760790Y-103725723D01*
X158760790Y-103344771D01*
X158808409Y-103249533D01*
X158903647Y-103201914D01*
X159094123Y-103201914D01*
X159189361Y-103249533D01*
X159236980Y-103344771D01*
X159236980Y-103440009D01*
X158760790Y-103535247D01*
X159808409Y-103868580D02*
X159713171Y-103820961D01*
X159665552Y-103725723D01*
X159665552Y-102868580D01*
X160332219Y-103868580D02*
X160236980Y-103820961D01*
X160189361Y-103725723D01*
X160189361Y-102868580D01*
%TO.C,D1*%
X158485180Y-111431495D02*
X157485180Y-111431495D01*
X157485180Y-111193400D01*
X157532800Y-111050542D01*
X157628038Y-110955304D01*
X157723276Y-110907685D01*
X157913752Y-110860066D01*
X158056609Y-110860066D01*
X158247085Y-110907685D01*
X158342323Y-110955304D01*
X158437561Y-111050542D01*
X158485180Y-111193400D01*
X158485180Y-111431495D01*
X158485180Y-109907685D02*
X158485180Y-110479114D01*
X158485180Y-110193400D02*
X157485180Y-110193400D01*
X157628038Y-110288638D01*
X157723276Y-110383876D01*
X157770895Y-110479114D01*
X159055180Y-114765304D02*
X158055180Y-114765304D01*
X159055180Y-114193876D02*
X158483752Y-114622447D01*
X158055180Y-114193876D02*
X158626609Y-114765304D01*
%TO.C,J2*%
X168043466Y-104938780D02*
X168043466Y-105653066D01*
X167995847Y-105795923D01*
X167900609Y-105891161D01*
X167757752Y-105938780D01*
X167662514Y-105938780D01*
X168472038Y-105034019D02*
X168519657Y-104986400D01*
X168614895Y-104938780D01*
X168852990Y-104938780D01*
X168948228Y-104986400D01*
X168995847Y-105034019D01*
X169043466Y-105129257D01*
X169043466Y-105224495D01*
X168995847Y-105367352D01*
X168424419Y-105938780D01*
X169043466Y-105938780D01*
%TO.C,C2*%
X153909933Y-122734542D02*
X153862314Y-122782161D01*
X153719457Y-122829780D01*
X153624219Y-122829780D01*
X153481361Y-122782161D01*
X153386123Y-122686923D01*
X153338504Y-122591685D01*
X153290885Y-122401209D01*
X153290885Y-122258352D01*
X153338504Y-122067876D01*
X153386123Y-121972638D01*
X153481361Y-121877400D01*
X153624219Y-121829780D01*
X153719457Y-121829780D01*
X153862314Y-121877400D01*
X153909933Y-121925019D01*
X154290885Y-121925019D02*
X154338504Y-121877400D01*
X154433742Y-121829780D01*
X154671838Y-121829780D01*
X154767076Y-121877400D01*
X154814695Y-121925019D01*
X154862314Y-122020257D01*
X154862314Y-122115495D01*
X154814695Y-122258352D01*
X154243266Y-122829780D01*
X154862314Y-122829780D01*
%TO.C,U1*%
X153730495Y-116999980D02*
X153730495Y-117809504D01*
X153778114Y-117904742D01*
X153825733Y-117952361D01*
X153920971Y-117999980D01*
X154111447Y-117999980D01*
X154206685Y-117952361D01*
X154254304Y-117904742D01*
X154301923Y-117809504D01*
X154301923Y-116999980D01*
X155301923Y-117999980D02*
X154730495Y-117999980D01*
X155016209Y-117999980D02*
X155016209Y-116999980D01*
X154920971Y-117142838D01*
X154825733Y-117238076D01*
X154730495Y-117285695D01*
%TO.C,U2*%
X144730495Y-121999980D02*
X144730495Y-122809504D01*
X144778114Y-122904742D01*
X144825733Y-122952361D01*
X144920971Y-122999980D01*
X145111447Y-122999980D01*
X145206685Y-122952361D01*
X145254304Y-122904742D01*
X145301923Y-122809504D01*
X145301923Y-121999980D01*
X145730495Y-122095219D02*
X145778114Y-122047600D01*
X145873352Y-121999980D01*
X146111447Y-121999980D01*
X146206685Y-122047600D01*
X146254304Y-122095219D01*
X146301923Y-122190457D01*
X146301923Y-122285695D01*
X146254304Y-122428552D01*
X145682876Y-122999980D01*
X146301923Y-122999980D01*
%TO.C,C1*%
X131211133Y-123439942D02*
X131163514Y-123487561D01*
X131020657Y-123535180D01*
X130925419Y-123535180D01*
X130782561Y-123487561D01*
X130687323Y-123392323D01*
X130639704Y-123297085D01*
X130592085Y-123106609D01*
X130592085Y-122963752D01*
X130639704Y-122773276D01*
X130687323Y-122678038D01*
X130782561Y-122582800D01*
X130925419Y-122535180D01*
X131020657Y-122535180D01*
X131163514Y-122582800D01*
X131211133Y-122630419D01*
X132163514Y-123535180D02*
X131592085Y-123535180D01*
X131877800Y-123535180D02*
X131877800Y-122535180D01*
X131782561Y-122678038D01*
X131687323Y-122773276D01*
X131592085Y-122820895D01*
%TO.C,J1*%
X131839266Y-111553980D02*
X131839266Y-112268266D01*
X131791647Y-112411123D01*
X131696409Y-112506361D01*
X131553552Y-112553980D01*
X131458314Y-112553980D01*
X132839266Y-112553980D02*
X132267838Y-112553980D01*
X132553552Y-112553980D02*
X132553552Y-111553980D01*
X132458314Y-111696838D01*
X132363076Y-111792076D01*
X132267838Y-111839695D01*
D12*
%TO.C,D1*%
X159032800Y-112513400D02*
X161972800Y-112513400D01*
X159032800Y-113413400D02*
X159032800Y-107973400D01*
X159032800Y-112633400D02*
X161972800Y-112633400D01*
X159362800Y-113413400D02*
X159032800Y-113413400D01*
X161972800Y-113413400D02*
X161972800Y-107973400D01*
X159032800Y-112393400D02*
X161972800Y-112393400D01*
X161642800Y-113413400D02*
X161972800Y-113413400D01*
X161972800Y-107973400D02*
X161642800Y-107973400D01*
X159032800Y-107973400D02*
X159362800Y-107973400D01*
%TO.C,J2*%
X173937400Y-112628300D02*
X167337400Y-112628300D01*
X167337400Y-112628300D02*
X167337400Y-118728300D01*
X167337400Y-118728300D02*
X173937400Y-118728300D01*
X173937400Y-118728300D02*
X173937400Y-112628300D01*
X173937400Y-106265300D02*
X167337400Y-106265300D01*
X167337400Y-106265300D02*
X167337400Y-112625300D01*
X167337400Y-112625300D02*
X173937400Y-112625300D01*
X173937400Y-112625300D02*
X173937400Y-106265300D01*
%TO.C,C2*%
X149967800Y-123195800D02*
X151225800Y-123195800D01*
X149967800Y-121355800D02*
X151225800Y-121355800D01*
D13*
%TO.C,U1*%
X144221400Y-107467600D02*
X141681400Y-107467600D01*
D14*
X165811400Y-105435600D02*
X165811400Y-119659600D01*
D13*
X146761400Y-107467600D02*
X144221400Y-107467600D01*
D14*
X165811400Y-119659600D02*
X141173400Y-119659600D01*
X141173400Y-105435600D02*
X165811400Y-105435600D01*
D13*
X141681400Y-117627600D02*
X146761400Y-117627600D01*
X141681400Y-107467600D02*
X141681400Y-110007600D01*
D14*
X141173400Y-119659600D02*
X141173400Y-105435600D01*
D13*
X141681400Y-110007600D02*
X141681400Y-117627600D01*
X146761400Y-117627600D02*
X146761400Y-107467600D01*
D12*
%TO.C,U2*%
X139692400Y-124397600D02*
X143292400Y-124397600D01*
X143330878Y-124386078D02*
G75*
G03*
X141492400Y-119947600I-1838478J1838478D01*
G01*
X141492400Y-119947599D02*
G75*
G03*
X139653922Y-124386078I0J-2600001D01*
G01*
%TO.C,C1*%
X135167600Y-121635200D02*
X133909600Y-121635200D01*
X135167600Y-123475200D02*
X133909600Y-123475200D01*
D15*
%TO.C,J1*%
X123472600Y-109011600D02*
X128972600Y-109011600D01*
X128972600Y-109011600D02*
X128972600Y-116261600D01*
X128972600Y-116261600D02*
X123472600Y-116261600D01*
X123472600Y-116261600D02*
X123472600Y-109011600D01*
X124990600Y-105541600D02*
X139690600Y-105541600D01*
X139690600Y-105541600D02*
X139690600Y-119541600D01*
X139690600Y-119541600D02*
X124990600Y-119541600D01*
X124990600Y-119541600D02*
X124990600Y-105541600D01*
D11*
X136222600Y-108261600D02*
G75*
G03*
X136222600Y-108261600I-1750000J0D01*
G01*
X136222600Y-117011600D02*
G75*
G03*
X136222600Y-117011600I-1750000J0D01*
G01*
%TD*%
M02*
