%TF.GenerationSoftware,KiCad,Pcbnew,6.0.11-2627ca5db0~126~ubuntu20.04.1*%
%TF.CreationDate,2024-03-17T04:55:18-05:00*%
%TF.ProjectId,WaterFlowCounter,57617465-7246-46c6-9f77-436f756e7465,rev?*%
%TF.SameCoordinates,Original*%
%TF.FileFunction,Copper,L2,Bot*%
%TF.FilePolarity,Positive*%
%FSLAX46Y46*%
G04 Gerber Fmt 4.6, Leading zero omitted, Abs format (unit mm)*
G04 Created by KiCad (PCBNEW 6.0.11-2627ca5db0~126~ubuntu20.04.1) date 2024-03-17 04:55:18*
%MOMM*%
%LPD*%
G01*
G04 APERTURE LIST*
%TA.AperFunction,Profile*%
%ADD10C,0.200000*%
%TD*%
%TA.AperFunction,ComponentPad*%
%ADD11R,1.800000X1.800000*%
%TD*%
%TA.AperFunction,ComponentPad*%
%ADD12O,1.800000X1.800000*%
%TD*%
%TA.AperFunction,ComponentPad*%
%ADD13R,1.524000X1.524000*%
%TD*%
%TA.AperFunction,ComponentPad*%
%ADD14C,1.524000*%
%TD*%
%TA.AperFunction,ComponentPad*%
%ADD15C,1.600000*%
%TD*%
%TA.AperFunction,ComponentPad*%
%ADD16R,1.727200X1.727200*%
%TD*%
%TA.AperFunction,ComponentPad*%
%ADD17O,1.727200X1.727200*%
%TD*%
%TA.AperFunction,ComponentPad*%
%ADD18R,1.050000X1.500000*%
%TD*%
%TA.AperFunction,ComponentPad*%
%ADD19O,1.050000X1.500000*%
%TD*%
%TA.AperFunction,Conductor*%
%ADD20C,0.250000*%
%TD*%
G04 APERTURE END LIST*
D10*
X172550000Y-103000000D02*
G75*
G03*
X172550000Y-103000000I-1550000J0D01*
G01*
X125000000Y-100000000D02*
X174000000Y-100000000D01*
X174000000Y-100000000D02*
X174000000Y-125000000D01*
X174000000Y-125000000D02*
X125000000Y-125000000D01*
X125000000Y-125000000D02*
X125000000Y-100000000D01*
X129550000Y-122000000D02*
G75*
G03*
X129550000Y-122000000I-1550000J0D01*
G01*
X172550000Y-122000000D02*
G75*
G03*
X172550000Y-122000000I-1550000J0D01*
G01*
X129550000Y-103000000D02*
G75*
G03*
X129550000Y-103000000I-1550000J0D01*
G01*
%TO.C,J1*%
X136222600Y-108261600D02*
G75*
G03*
X136222600Y-108261600I-1750000J0D01*
G01*
X136222600Y-117011600D02*
G75*
G03*
X136222600Y-117011600I-1750000J0D01*
G01*
%TD*%
D11*
%TO.P,D1,1,K*%
%TO.N,Net-(J2-Pad2)*%
X160502800Y-114503400D03*
D12*
%TO.P,D1,2,A*%
%TO.N,Earth*%
X160502800Y-106883400D03*
%TD*%
D13*
%TO.P,J2,1,Pin_1*%
%TO.N,Earth*%
X170737400Y-108048300D03*
D14*
%TO.P,J2,2,Pin_2*%
%TO.N,Net-(J2-Pad2)*%
X170737400Y-111048300D03*
%TO.P,J2,3,Pin_3*%
%TO.N,Net-(C2-Pad1)*%
X170737400Y-114048300D03*
%TO.P,J2,4,Pin_4*%
%TO.N,Net-(C1-Pad1)*%
X170737400Y-117048300D03*
%TD*%
D15*
%TO.P,C2,1*%
%TO.N,Net-(C2-Pad1)*%
X149346800Y-122275800D03*
%TO.P,C2,2*%
%TO.N,Earth*%
X151846800Y-122275800D03*
%TD*%
D16*
%TO.P,U1,1,GND*%
%TO.N,Earth*%
X145491400Y-108737600D03*
D17*
%TO.P,U1,2,U0TXD/GPIO1*%
%TO.N,unconnected-(U1-Pad2)*%
X142951400Y-108737600D03*
%TO.P,U1,3,U1TXD/GPIO2*%
%TO.N,Net-(J2-Pad2)*%
X145491400Y-111277600D03*
%TO.P,U1,4,CH_EN/CH_PD*%
%TO.N,unconnected-(U1-Pad4)*%
X142951400Y-111277600D03*
%TO.P,U1,5,GPIO0*%
%TO.N,unconnected-(U1-Pad5)*%
X145491400Y-113817600D03*
%TO.P,U1,6,RST*%
%TO.N,unconnected-(U1-Pad6)*%
X142951400Y-113817600D03*
%TO.P,U1,7,GPIO3/U0RXD*%
%TO.N,unconnected-(U1-Pad7)*%
X145491400Y-116357600D03*
%TO.P,U1,8,VCC*%
%TO.N,Net-(C2-Pad1)*%
X142951400Y-116357600D03*
%TD*%
D18*
%TO.P,U2,1,GND*%
%TO.N,Earth*%
X140222400Y-122547600D03*
D19*
%TO.P,U2,2,VI*%
%TO.N,Net-(C1-Pad1)*%
X141492400Y-122547600D03*
%TO.P,U2,3,VO*%
%TO.N,Net-(C2-Pad1)*%
X142762400Y-122547600D03*
%TD*%
D15*
%TO.P,C1,1*%
%TO.N,Net-(C1-Pad1)*%
X135788600Y-122555200D03*
%TO.P,C1,2*%
%TO.N,Earth*%
X133288600Y-122555200D03*
%TD*%
D14*
%TO.P,J1,1,VBUS*%
%TO.N,Net-(C1-Pad1)*%
X137919200Y-107522800D03*
%TO.P,J1,2,D-*%
%TO.N,unconnected-(J1-Pad2)*%
X137944600Y-110113600D03*
%TO.P,J1,3,D+*%
%TO.N,unconnected-(J1-Pad3)*%
X137944600Y-112681600D03*
%TO.P,J1,4,ID*%
%TO.N,unconnected-(J1-Pad4)*%
X137944600Y-115193600D03*
%TO.P,J1,5,GND*%
%TO.N,Earth*%
X137972600Y-117761600D03*
D13*
%TO.P,J1,6,Shield*%
X130472600Y-117761600D03*
%TO.P,J1,7,Shield*%
X130472600Y-107261600D03*
%TD*%
D20*
%TO.N,Earth*%
X145491400Y-108737600D02*
X160426600Y-108737600D01*
X160426600Y-108737600D02*
X167081400Y-108737600D01*
X160502800Y-106883400D02*
X160502800Y-108661400D01*
X160502800Y-108661400D02*
X160426600Y-108737600D01*
%TO.N,Net-(J2-Pad2)*%
X145491400Y-111277600D02*
X160401200Y-111277600D01*
X160401200Y-111277600D02*
X170508100Y-111277600D01*
X160502800Y-114503400D02*
X160502800Y-111379200D01*
X160502800Y-111379200D02*
X160401200Y-111277600D01*
%TO.N,Net-(C2-Pad1)*%
X149346800Y-122275800D02*
X149346800Y-119193200D01*
X149346800Y-119193200D02*
X151674400Y-116865600D01*
X151674400Y-116865600D02*
X164846200Y-116865600D01*
X164846200Y-116865600D02*
X167663500Y-114048300D01*
X167663500Y-114048300D02*
X170737400Y-114048300D01*
%TO.N,Net-(C1-Pad1)*%
X137242400Y-120797600D02*
X137242400Y-121101400D01*
X137242400Y-121101400D02*
X135788600Y-122555200D01*
%TO.N,Net-(C2-Pad1)*%
X142762400Y-122547600D02*
X149075000Y-122547600D01*
X149075000Y-122547600D02*
X149346800Y-122275800D01*
X142951400Y-116357600D02*
X142951400Y-122358600D01*
X142951400Y-122358600D02*
X142762400Y-122547600D01*
%TO.N,Earth*%
X140222400Y-122547600D02*
X140222400Y-123589200D01*
X140222400Y-123589200D02*
X140680800Y-124047600D01*
X140680800Y-124047600D02*
X150075000Y-124047600D01*
X150075000Y-124047600D02*
X151846800Y-122275800D01*
%TO.N,Net-(J2-Pad2)*%
X170508100Y-111277600D02*
X170737400Y-111048300D01*
%TO.N,Earth*%
X167081400Y-108737600D02*
X167770700Y-108048300D01*
X167770700Y-108048300D02*
X170737400Y-108048300D01*
%TO.N,Net-(C1-Pad1)*%
X137242400Y-120797600D02*
X139992400Y-118047600D01*
X139992400Y-118047600D02*
X139992400Y-108547600D01*
X141492400Y-121547600D02*
X141492400Y-122547600D01*
X137242400Y-121047600D02*
X137242400Y-120797600D01*
X137242400Y-121047600D02*
X140992400Y-121047600D01*
X139992400Y-108547600D02*
X138913600Y-107468800D01*
X138913600Y-107468800D02*
X137739000Y-107468800D01*
X140992400Y-121047600D02*
X141492400Y-121547600D01*
%TO.N,Earth*%
X130472600Y-119377200D02*
X130472600Y-117761600D01*
X134992400Y-120797600D02*
X137792400Y-117997600D01*
X132492400Y-123297600D02*
X134992400Y-120797600D01*
X145491400Y-106659200D02*
X145491400Y-108737600D01*
X130472600Y-107261600D02*
X132625600Y-105108600D01*
X136492400Y-124547600D02*
X132992400Y-124547600D01*
X132625600Y-105108600D02*
X143940800Y-105108600D01*
X132992400Y-124547600D02*
X132492400Y-124047600D01*
X134992400Y-120797600D02*
X131893000Y-120797600D01*
X131893000Y-120797600D02*
X130472600Y-119377200D01*
X140222400Y-122547600D02*
X138492400Y-122547600D01*
X138492400Y-122547600D02*
X136492400Y-124547600D01*
X143940800Y-105108600D02*
X145491400Y-106659200D01*
X137792400Y-117997600D02*
X137792400Y-117707600D01*
X130472600Y-107261600D02*
X130472600Y-117761600D01*
X132492400Y-124047600D02*
X132492400Y-123297600D01*
%TD*%
M02*
